<svg width="24" height="24" viewBox="0 0 24 24" fill="none" xmlns="http://www.w3.org/2000/svg">
<path d="M7.00281 13.9207L2.78517 5.62146C1.60604 7.39015 0.97113 9.47629 0.97113 11.7438C0.97113 17.3674 5.05272 22.0385 10.4495 22.8548L13.3519 17.2313C10.7216 17.6848 8.22728 16.2789 7.00281 13.9207Z" fill="#0DC35E"/>
<path d="M6.77864 10.3832C7.64031 7.88889 10.1346 6.39231 12.8103 6.57372L22.1073 7.07258C21.1549 5.16784 19.6583 3.5352 17.6629 2.40143C15.8942 1.35836 13.9441 0.859497 12.0394 0.859497C8.72873 0.904848 5.46346 2.35608 3.33197 5.07714L6.77864 10.3832Z" fill="#FF003D"/>
<path d="M22.3093 7.83533L15.9602 8.15278C17.6835 10.1936 17.7288 13.096 16.2776 15.3182L11.1983 23.1186C13.2844 23.2546 15.4613 22.7558 17.4114 21.622C22.3093 18.8103 24.2594 12.9146 22.3093 7.83533Z" fill="#FFC90B"/>
<path d="M8.22125 12.002C8.22125 14.1335 9.89924 15.8115 12.0307 15.8115C14.1169 15.8115 15.7949 14.1335 15.7949 12.002C15.7949 9.9159 14.1169 8.23792 12.0307 8.23792C9.89924 8.23792 8.22125 9.9159 8.22125 12.002Z" fill="#2F81FF"/>
</svg>
