<svg width="38" height="43" viewBox="0 0 38 43" fill="none" xmlns="http://www.w3.org/2000/svg">
<rect x="16.0442" y="3.22583" width="5.93903" height="3.96342" fill="#E4F2FF" stroke="#0063FA"/>
<rect x="13.0808" y="1.25" width="11.8659" height="1.98781" rx="0.993903" fill="#0063FA" stroke="#0063FA"/>
<rect x="31.4126" y="7.51058" width="4.59202" height="3.15521" transform="rotate(42.5502 31.4126 7.51058)" fill="#E4F2FF" stroke="#0063FA"/>
<rect x="30.7966" y="4.99471" width="8.90245" height="1.7184" rx="0.859202" transform="rotate(42.5502 30.7966 4.99471)" fill="#0063FA" stroke="#0063FA"/>
<path d="M19.0137 5.70117C23.4175 5.70117 27.6731 7.29142 30.9978 10.1794C34.3224 13.0673 36.4923 17.0587 37.1084 21.4191C37.7244 25.7796 36.7452 30.2159 34.3507 33.9118C31.9563 37.6078 28.3077 40.3148 24.0763 41.5347C19.8448 42.7547 15.3152 42.4057 11.3206 40.5518C7.32608 38.6979 4.13532 35.4639 2.33539 31.4448C0.53545 27.4256 0.247406 22.8917 1.52425 18.6771C2.80109 14.4625 5.55693 10.8507 9.28476 8.50618L19.0137 23.9756V5.70117Z" fill="white"/>
<circle cx="19.0137" cy="23.9756" r="17.2744" stroke="#0063FA" stroke-width="2"/>
<path d="M12.5929 13.6038L21.9771 28.9148" stroke="#61A0FF" stroke-width="2" stroke-linecap="round"/>
<circle cx="19.0137" cy="23.9756" r="3.45732" fill="#0063FA"/>
<path d="M19.0136 9.15845V11.628M33.8307 23.9755H31.3612M4.19653 23.9755H6.66605M19.0136 36.3231V38.7926" stroke="#0063FA" stroke-linecap="round"/>
</svg>
