<svg width="38" height="42" viewBox="0 0 38 42" fill="none" xmlns="http://www.w3.org/2000/svg">
<path d="M0.738678 9.77674C0.738678 6.99867 2.64575 4.5839 5.34818 3.94009L18.7387 0.75L32.6518 3.96632C35.3662 4.59382 37.2887 7.01137 37.2887 9.79739V11.8109C37.2887 24.035 30.4441 35.2368 19.5709 40.8225C19.0496 41.0903 18.4301 41.0866 17.9122 40.8125C7.34679 35.219 0.738678 24.2435 0.738678 12.2888V9.77674Z" fill="white"/>
<path d="M1.73868 9.77674C1.73868 7.46168 3.3279 5.44938 5.57993 4.91286L18.7421 1.77717L32.4266 4.94063C34.6875 5.46328 36.2887 7.47688 36.2887 9.79739V11.8109C36.2887 23.6598 29.654 34.5184 19.1139 39.933C18.8832 40.0515 18.6089 40.0498 18.3801 39.9287C8.14204 34.5085 1.73868 23.8731 1.73868 12.2888V9.77674Z" stroke="#0063FA" stroke-width="2"/>
<path d="M11.2703 19.25L16.4808 24.4605L27.4808 13.4605" stroke="#61A0FF" stroke-width="3" stroke-linecap="round" stroke-linejoin="round"/>
</svg>
