<svg width="33" height="32" viewBox="0 0 33 32" fill="none" xmlns="http://www.w3.org/2000/svg">
<circle cx="16.156" cy="16" r="16" fill="#FA6615"/>
<g clip-path="url(#clip0_1743:2169)">
<path d="M12.3183 19.8747C12.2585 19.8146 12.2249 19.7332 12.2249 19.6484C12.2249 19.5636 12.2585 19.4822 12.3183 19.4221L13.148 18.0834C13.1707 18.0522 13.2005 18.0269 13.2349 18.0094C13.2693 17.9919 13.3074 17.9828 13.346 17.9828C13.3845 17.9828 13.4226 17.9919 13.457 18.0094C13.4914 18.0269 13.5212 18.0522 13.5439 18.0834C14.3307 18.6803 15.2904 19.0046 16.2779 19.0073C16.9379 19.0073 17.4658 18.7622 17.4658 18.1023C17.4658 17.4423 16.9567 17.2161 15.5803 16.7824C14.2039 16.3487 12.5635 15.6888 12.5635 13.841C12.5635 11.9932 14.0719 10.7865 16.3345 10.7865C17.4907 10.7537 18.6292 11.0761 19.5965 11.7103C19.7662 11.7103 19.7662 11.9555 19.5965 12.1063L18.8234 13.3885C18.8069 13.4264 18.7817 13.46 18.7498 13.4864C18.7179 13.5128 18.6802 13.5314 18.6398 13.5406C18.5995 13.5497 18.5575 13.5493 18.5173 13.5392C18.4771 13.5292 18.4399 13.5098 18.4086 13.4827C17.7556 13.0826 17.0061 12.8675 16.2402 12.8605C15.486 12.8605 14.9204 13.0679 14.9204 13.6713C14.9204 14.2747 15.486 14.4066 16.8059 14.8403C18.1257 15.274 19.7284 15.9151 19.7284 17.9703C19.7284 20.0255 18.352 21.0625 16.0705 21.0625C14.7222 21.0971 13.4011 20.6789 12.3183 19.8747Z" fill="white"/>
<path d="M23.3675 16.4807L29.2692 16.7635C29.3769 16.7741 29.4856 16.7619 29.5883 16.7278C29.6909 16.6937 29.7853 16.6384 29.8653 16.5656C29.9453 16.4927 30.0091 16.4039 30.0525 16.3048C30.096 16.2057 30.1182 16.0986 30.1177 15.9904C30.1154 15.8831 30.0913 15.7773 30.0469 15.6796C30.0025 15.5819 29.9387 15.4942 29.8593 15.4219C29.7799 15.3496 29.6867 15.2942 29.5853 15.259C29.4838 15.2238 29.3763 15.2097 29.2692 15.2174L23.311 15.5191C23.0093 15.5191 22.783 15.7453 22.783 15.9904C22.783 16.2356 23.0093 16.4241 23.311 16.4618H23.4052L23.3675 16.4807Z" fill="white"/>
<path d="M8.94355 16.4807L3.04187 16.7635C2.93328 16.7739 2.82371 16.7618 2.72004 16.7279C2.61636 16.6939 2.52081 16.6389 2.43938 16.5664C2.35795 16.4938 2.29239 16.4052 2.24682 16.306C2.20124 16.2069 2.17663 16.0995 2.17453 15.9904C2.1793 15.8822 2.20569 15.7761 2.25215 15.6783C2.29862 15.5804 2.3642 15.4929 2.44505 15.4209C2.52589 15.3488 2.62037 15.2937 2.72287 15.2587C2.82538 15.2238 2.93384 15.2097 3.04187 15.2174L8.98126 15.5191H9.07555C9.20303 15.5229 9.32481 15.5727 9.41839 15.6594C9.51198 15.746 9.57102 15.8636 9.58463 15.9904C9.57102 16.1172 9.51198 16.2348 9.41839 16.3215C9.32481 16.4081 9.20303 16.458 9.07555 16.4618H8.96241L8.94355 16.4807Z" fill="white"/>
<path d="M16.6367 8.78802L16.9195 2.88633C16.9272 2.77924 16.913 2.67172 16.8779 2.57028C16.8427 2.46884 16.7873 2.3756 16.715 2.29624C16.6427 2.21688 16.555 2.15305 16.4573 2.10863C16.3595 2.06421 16.2538 2.04013 16.1464 2.03785C16.0383 2.03733 15.9312 2.05954 15.8321 2.10302C15.733 2.14649 15.6442 2.21028 15.5713 2.29026C15.4984 2.37023 15.4432 2.46461 15.4091 2.56729C15.375 2.66997 15.3628 2.77865 15.3734 2.88633L15.6562 8.84459C15.6562 9.14627 15.8825 9.37253 16.1276 9.37253C16.3727 9.37253 16.5613 9.14627 16.599 8.84459L16.6367 8.78802Z" fill="white"/>
<path d="M16.6367 23.2121L16.9195 29.1138C16.9272 29.2218 16.9131 29.3303 16.8781 29.4328C16.8432 29.5353 16.7881 29.6298 16.716 29.7106C16.6439 29.7915 16.5564 29.857 16.4586 29.9035C16.3608 29.95 16.2546 29.9764 16.1464 29.9811C16.0374 29.979 15.9299 29.9544 15.8308 29.9089C15.7317 29.8633 15.6431 29.7977 15.5705 29.7163C15.4979 29.6349 15.4429 29.5393 15.409 29.4356C15.3751 29.332 15.363 29.2224 15.3734 29.1138L15.6562 23.1744V23.0801C15.66 22.9526 15.7099 22.8309 15.7965 22.7373C15.8832 22.6437 16.0008 22.5847 16.1276 22.571C16.2544 22.5847 16.372 22.6437 16.4586 22.7373C16.5453 22.8309 16.5951 22.9526 16.599 23.0801V23.2121H16.6367Z" fill="white"/>
<path d="M21.5959 11.2391L25.9703 7.26066C26.051 7.18817 26.1156 7.09951 26.1598 7.00043C26.204 6.90135 26.2268 6.79408 26.2268 6.68559C26.2268 6.57711 26.204 6.46984 26.1598 6.37076C26.1156 6.27167 26.051 6.18299 25.9703 6.11049C25.8963 6.03232 25.8072 5.97006 25.7083 5.92751C25.6094 5.88496 25.5029 5.86304 25.3953 5.86304C25.2876 5.86304 25.1811 5.88496 25.0822 5.92751C24.9833 5.97006 24.8942 6.03232 24.8202 6.11049L20.804 10.5226C20.7192 10.619 20.6724 10.743 20.6724 10.8715C20.6724 10.9999 20.7192 11.1239 20.804 11.2203C20.9004 11.3051 21.0244 11.3519 21.1528 11.3519C21.2813 11.3519 21.4053 11.3051 21.5017 11.2203L21.5959 11.2391Z" fill="white"/>
<path d="M11.3957 21.4396L7.43608 25.814C7.36359 25.8947 7.27492 25.9593 7.17584 26.0034C7.07676 26.0476 6.96948 26.0705 6.861 26.0705C6.75251 26.0705 6.64524 26.0476 6.54616 26.0034C6.44708 25.9593 6.35841 25.8947 6.28591 25.814C6.20521 25.7415 6.14067 25.6529 6.09649 25.5538C6.05231 25.4547 6.02948 25.3474 6.02948 25.2389C6.02948 25.1304 6.05231 25.0232 6.09649 24.9241C6.14067 24.825 6.20521 24.7364 6.28591 24.6639L10.698 20.6665C10.7944 20.5817 10.9184 20.5349 11.0469 20.5349C11.1753 20.5349 11.2993 20.5817 11.3957 20.6665C11.4805 20.7629 11.5273 20.887 11.5273 21.0154C11.5273 21.1438 11.4805 21.2678 11.3957 21.3642V21.4396Z" fill="white"/>
<path d="M11.3957 10.5604L7.43608 6.18596C7.36208 6.10779 7.27292 6.04553 7.17404 6.00298C7.07516 5.96043 6.96864 5.93848 6.861 5.93848C6.75335 5.93848 6.64684 5.96043 6.54796 6.00298C6.44908 6.04553 6.35992 6.10779 6.28591 6.18596C6.20521 6.25846 6.14067 6.34714 6.09649 6.44622C6.05231 6.5453 6.02948 6.65255 6.02948 6.76103C6.02948 6.86952 6.05231 6.97679 6.09649 7.07587C6.14067 7.17495 6.20521 7.26363 6.28591 7.33613L10.698 11.3523C10.7944 11.4371 10.9184 11.4839 11.0469 11.4839C11.1753 11.4839 11.2993 11.4371 11.3957 11.3523C11.4805 11.2559 11.5273 11.1319 11.5273 11.0035C11.5273 10.875 11.4805 10.751 11.3957 10.6546V10.5604Z" fill="white"/>
<path d="M21.5959 20.7608L25.9703 24.7204C26.051 24.7929 26.1156 24.8816 26.1598 24.9806C26.204 25.0797 26.2268 25.187 26.2268 25.2955C26.2268 25.404 26.204 25.5112 26.1598 25.6103C26.1156 25.7094 26.051 25.7981 25.9703 25.8706C25.8978 25.9513 25.8092 26.0158 25.7101 26.06C25.611 26.1042 25.5037 26.127 25.3953 26.127C25.2868 26.127 25.1795 26.1042 25.0804 26.06C24.9813 26.0158 24.8927 25.9513 24.8202 25.8706L20.804 21.4585C20.7192 21.3621 20.6724 21.238 20.6724 21.1096C20.6724 20.9812 20.7192 20.8572 20.804 20.7608C20.9004 20.676 21.0244 20.6292 21.1528 20.6292C21.2813 20.6292 21.4053 20.676 21.5017 20.7608H21.5959Z" fill="white"/>
<path d="M12.074 7.0155C12.3551 7.0155 12.5831 6.78757 12.5831 6.50641C12.5831 6.22524 12.3551 5.99731 12.074 5.99731C11.7928 5.99731 11.5649 6.22524 11.5649 6.50641C11.5649 6.78757 11.7928 7.0155 12.074 7.0155Z" fill="white"/>
<path d="M6.54986 12.6532C6.83103 12.6532 7.05895 12.4253 7.05895 12.1441C7.05895 11.8629 6.83103 11.635 6.54986 11.635C6.2687 11.635 6.04077 11.8629 6.04077 12.1441C6.04077 12.4253 6.2687 12.6532 6.54986 12.6532Z" fill="white"/>
<path d="M20.2384 7.0155C20.5195 7.0155 20.7475 6.78757 20.7475 6.50641C20.7475 6.22524 20.5195 5.99731 20.2384 5.99731C19.9572 5.99731 19.7293 6.22524 19.7293 6.50641C19.7293 6.78757 19.9572 7.0155 20.2384 7.0155Z" fill="white"/>
<path d="M25.7628 12.6532C26.044 12.6532 26.2719 12.4253 26.2719 12.1441C26.2719 11.8629 26.044 11.635 25.7628 11.635C25.4817 11.635 25.2537 11.8629 25.2537 12.1441C25.2537 12.4253 25.4817 12.6532 25.7628 12.6532Z" fill="white"/>
<path d="M12.074 25.9459C12.3551 25.9459 12.5831 25.718 12.5831 25.4368C12.5831 25.1557 12.3551 24.9277 12.074 24.9277C11.7928 24.9277 11.5649 25.1557 11.5649 25.4368C11.5649 25.718 11.7928 25.9459 12.074 25.9459Z" fill="white"/>
<path d="M6.54986 20.3085C6.83103 20.3085 7.05895 20.0805 7.05895 19.7994C7.05895 19.5182 6.83103 19.2903 6.54986 19.2903C6.2687 19.2903 6.04077 19.5182 6.04077 19.7994C6.04077 20.0805 6.2687 20.3085 6.54986 20.3085Z" fill="white"/>
<path d="M20.2384 25.9459C20.5195 25.9459 20.7475 25.718 20.7475 25.4368C20.7475 25.1557 20.5195 24.9277 20.2384 24.9277C19.9572 24.9277 19.7293 25.1557 19.7293 25.4368C19.7293 25.718 19.9572 25.9459 20.2384 25.9459Z" fill="white"/>
<path d="M25.7628 20.3085C26.044 20.3085 26.2719 20.0805 26.2719 19.7994C26.2719 19.5182 26.044 19.2903 25.7628 19.2903C25.4817 19.2903 25.2537 19.5182 25.2537 19.7994C25.2537 20.0805 25.4817 20.3085 25.7628 20.3085Z" fill="white"/>
</g>
<defs>
<clipPath id="clip0_1743:2169">
<rect width="28" height="28" fill="white" transform="translate(2.15604 2)"/>
</clipPath>
</defs>
</svg>
