<svg width="49" height="41" viewBox="0 0 49 41" fill="none" xmlns="http://www.w3.org/2000/svg">
<circle cx="24.4141" cy="21.2" r="18.4887" fill="white" stroke="#0063FA" stroke-width="2"/>
<path d="M35.1966 23.6324C35.3797 23.5826 35.5592 23.627 35.6804 23.7198C35.7949 23.8074 35.8508 23.9291 35.8292 24.0748C35.055 29.3031 29.9662 34.5489 23.6941 34.5489C17.4019 34.5489 12.5111 29.264 11.8059 24.0039C11.7865 23.8593 11.842 23.7442 11.9433 23.6653C12.05 23.5821 12.2097 23.5407 12.3803 23.5882C14.4887 24.1753 17.9343 24.9039 23.6941 24.9039C29.3054 24.9039 33.0648 24.2124 35.1966 23.6324Z" fill="#E4F2FF" stroke="#0063FA"/>
<path d="M35.1966 23.6324C35.3797 23.5826 35.5592 23.627 35.6804 23.7198C35.7949 23.8074 35.8508 23.9291 35.8292 24.0748C35.055 29.3031 29.9662 34.5489 23.6941 34.5489C17.4019 34.5489 12.5111 29.264 11.8059 24.0039C11.7865 23.8593 11.842 23.7442 11.9433 23.6653C12.05 23.5821 12.2097 23.5407 12.3803 23.5882C14.4887 24.1753 17.9343 24.9039 23.6941 24.9039C29.3054 24.9039 33.0648 24.2124 35.1966 23.6324Z" stroke="#0063FA"/>
<path d="M11.43 5.20371C11.5881 4.30431 12.7699 4.07008 13.2592 4.84116L16.0631 9.2601C16.2734 9.59161 16.6583 9.76936 17.0471 9.71455L22.2292 8.98391C23.1335 8.85642 23.7215 9.90801 23.1393 10.6116L19.8031 14.6438C19.5528 14.9463 19.5027 15.3672 19.6749 15.72L21.9712 20.4228C22.3719 21.2434 21.5535 22.1275 20.7044 21.7913L15.8386 19.8644C15.4736 19.7198 15.0578 19.8022 14.7755 20.0751L11.0125 23.7122C10.3558 24.3468 9.26205 23.8417 9.31946 22.9303L9.64847 17.7072C9.67315 17.3154 9.46627 16.9454 9.11953 16.7612L4.49761 14.3063C3.69111 13.8779 3.83354 12.6816 4.71808 12.4545L9.78719 11.1534C10.1675 11.0558 10.4554 10.7447 10.5235 10.358L11.43 5.20371Z" fill="#94BEFF" stroke="#0063FA"/>
<path d="M34.7687 5.03254C35.2604 4.26298 36.4415 4.50086 36.5969 5.40075L37.4874 10.5578C37.5542 10.9447 37.8412 11.2567 38.2212 11.3555L43.2863 12.6723C44.1701 12.9021 44.3088 14.0988 43.501 14.5247L38.8715 16.9653C38.5242 17.1484 38.3162 17.5178 38.3396 17.9097L38.6525 23.1338C38.7071 24.0453 37.6118 24.5471 36.9571 23.9104L33.2054 20.2617C32.9239 19.988 32.5083 19.9043 32.1428 20.0477L27.2711 21.9596C26.421 22.2932 25.6054 21.4065 26.0086 20.5871L28.3194 15.8915C28.4927 15.5392 28.4439 15.1181 28.1946 14.8149L24.8708 10.7724C24.2909 10.067 24.8821 9.01723 25.7859 9.14752L30.9658 9.89419C31.3544 9.9502 31.7398 9.77364 31.9512 9.44279L34.7687 5.03254Z" fill="#94BEFF" stroke="#0063FA"/>
</svg>
