<svg width="21" height="21" viewBox="0 0 21 21" fill="none" xmlns="http://www.w3.org/2000/svg">
<path d="M15.2637 1H5.76367C3.14032 1 1.01367 3.12665 1.01367 5.75V15.25C1.01367 17.8734 3.14032 20 5.76367 20H15.2637C17.887 20 20.0137 17.8734 20.0137 15.25V5.75C20.0137 3.12665 17.887 1 15.2637 1Z" stroke="white" stroke-width="1.7" stroke-linecap="round" stroke-linejoin="round"/>
<path d="M14.3136 9.90154C14.4309 10.6922 14.2958 11.4996 13.9277 12.2091C13.5596 12.9186 12.9771 13.4939 12.2632 13.8532C11.5492 14.2126 10.7402 14.3377 9.95103 14.2107C9.1619 14.0837 8.4329 13.7111 7.86773 13.1459C7.30255 12.5808 6.92998 11.8518 6.803 11.0626C6.67601 10.2735 6.80109 9.46444 7.16044 8.7505C7.51979 8.03655 8.09511 7.4541 8.80457 7.08597C9.51403 6.71785 10.3215 6.5828 11.1121 6.70004C11.9186 6.81963 12.6652 7.19543 13.2417 7.77193C13.8182 8.34843 14.194 9.09507 14.3136 9.90154Z" stroke="white" stroke-width="1.7" stroke-linecap="round" stroke-linejoin="round"/>
<path d="M15.7387 5.2749H15.7487" stroke="white" stroke-width="2" stroke-linecap="round" stroke-linejoin="round"/>
</svg>
