<svg width="63" height="63" viewBox="0 0 63 63" fill="none" xmlns="http://www.w3.org/2000/svg">
<g clip-path="url(#clip0_1743:2204)">
<path d="M31.0135 1.41211L37.9358 8.28242L47.4465 6.29125L49.5984 15.8519L58.6727 19.3631L55.362 28.5894L61.1106 36.4933L53.3907 42.4516L53.9926 52.2403L44.3164 53.0307L39.5761 61.5881L31.0135 56.9674L22.4508 61.5881L17.7106 53.0307L8.03434 52.2403L8.63628 42.4516L0.916382 36.4933L6.66493 28.5894L3.35425 19.3631L12.4285 15.8519L14.5805 6.29125L24.0761 8.28242L31.0135 1.41211Z" fill="#FFE7B5"/>
<path d="M31.6005 49.2153C41.2829 49.2153 49.132 41.2873 49.132 31.5076C49.132 21.7278 41.2829 13.7998 31.6005 13.7998C21.9181 13.7998 14.0689 21.7278 14.0689 31.5076C14.0689 41.2873 21.9181 49.2153 31.6005 49.2153Z" fill="#FFCB60"/>
<path d="M5.81379 30.3227L11.8729 28.3427C14.9513 26.3525 17.6629 30.1395 19.3063 39.2007C20.98 44.7606 22.4658 50.2183 18.6205 50.7568L12.8566 52.492L8.39375 52.0499L8.39375 42.476L1.51418 36.0555L5.81379 30.3227Z" fill="#FA6615"/>
<path d="M14.7917 28.0668C16.5699 31.4681 17.8324 21.3576 18.9895 13.6121C19.5862 13.4763 20.2072 13.4865 20.8008 13.642C21.3944 13.7974 21.9433 14.0935 22.4016 14.5056C24.0568 16.9757 24.4029 20.4748 23.9051 24.7201L36.7297 20.8594C39.9662 22.6312 40.5659 24.4666 38.1172 26.2514C40.948 27.1453 41.765 28.8677 39.5341 31.7933C42.0389 33.4838 42.8227 35.2003 40.8658 36.9482C43.1802 38.6325 43.446 40.2986 41.1916 41.9456C33.7208 45.1629 26.6148 47.9211 21.9402 47.741C19.4577 39.5991 16.9749 30.5684 14.7917 28.0668Z" fill="#F8E6E0"/>
<path d="M8.41217 29.3196L12.1731 28.1874C13.1706 27.8871 14.2477 27.9994 15.1675 28.4994C16.0872 28.9995 16.7743 29.8465 17.0776 30.8539L21.4329 45.3212C21.6209 45.9182 21.6897 46.5463 21.6353 47.169C21.5808 47.7917 21.4042 48.3966 21.1157 48.9486C20.8272 49.5006 20.4325 49.9887 19.9546 50.3846C19.4767 50.7806 18.925 51.0764 18.3316 51.255L15.2911 52.1703L8.41217 29.3196Z" fill="#D64F00"/>
<path d="M21.0693 43.9089C24.2689 45.4538 40.2175 40.224 41.6177 37.7231C42.7192 39.5027 43.012 41.0495 41.1342 41.964C34.3983 44.9601 27.999 47.2992 22.5668 47.8392L21.0693 43.9089Z" fill="#F8D5C9"/>
<path d="M23.8478 24.7406C24.7497 15.8339 22.9181 12.8296 18.5721 13.741L16.393 29.5245" stroke="#1D1D1B" stroke-width="1.5" stroke-linecap="round" stroke-linejoin="round"/>
<path d="M38.0865 13.967L37.62 16.5054" stroke="#1D1D1B" stroke-width="1.5" stroke-linecap="round" stroke-linejoin="round"/>
<path d="M41.9844 15.3198L40.7504 17.539" stroke="#1D1D1B" stroke-width="1.5" stroke-linecap="round" stroke-linejoin="round"/>
<path d="M43.3987 19.3174L45.039 17.3718" stroke="#1D1D1B" stroke-width="1.5" stroke-linecap="round" stroke-linejoin="round"/>
<path d="M45.4603 21.8102L47.537 20.3662" stroke="#1D1D1B" stroke-width="1.5" stroke-linecap="round" stroke-linejoin="round"/>
<path d="M49.1322 23.9685L46.7094 24.6525" stroke="#1D1D1B" stroke-width="1.5" stroke-linecap="round" stroke-linejoin="round"/>
<path d="M47.3263 27.7989L49.8394 27.6013" stroke="#1D1D1B" stroke-width="1.5" stroke-linecap="round" stroke-linejoin="round"/>
<path d="M47.0703 30.9299L49.4931 31.6139" stroke="#1D1D1B" stroke-width="1.5" stroke-linecap="round" stroke-linejoin="round"/>
<path d="M30.309 2.10973C30.6991 1.72347 31.3275 1.72381 31.7171 2.11049L37.5536 7.90305C37.7922 8.13989 38.1338 8.24096 38.4629 8.17206L46.4823 6.49311C47.0171 6.38114 47.5428 6.71921 47.6628 7.2523L49.4813 15.3314C49.5545 15.6567 49.785 15.9241 50.096 16.0445L57.7628 19.011C58.2689 19.2068 58.5265 19.7706 58.3432 20.2814L55.5407 28.0913C55.4289 28.4029 55.4785 28.7496 55.6732 29.0173L60.5389 35.7073C60.8572 36.1449 60.7696 36.7564 60.3412 37.0871L53.8103 42.1277C53.5478 42.3303 53.4028 42.6498 53.4232 42.9807L53.9324 51.262C53.9659 51.8054 53.5584 52.2757 53.0157 52.3201L44.8502 52.987C44.5167 53.0143 44.219 53.2065 44.0569 53.4992L40.0553 60.723C39.7898 61.2023 39.1879 61.3787 38.7057 61.1184L31.4884 57.2237C31.192 57.0637 30.835 57.0637 30.5386 57.2237L23.3213 61.1184C22.839 61.3787 22.2371 61.2023 21.9716 60.723L17.9701 53.4992C17.808 53.2065 17.5102 53.0143 17.1767 52.987L9.0112 52.3201C8.46855 52.2757 8.06108 51.8054 8.0945 51.262L8.60375 42.9807C8.6241 42.6498 8.4791 42.3303 8.21663 42.1277L1.68577 37.0871C1.25735 36.7564 1.16972 36.1449 1.48804 35.7073L6.3537 29.0173C6.5484 28.7496 6.59801 28.4029 6.48622 28.0913L3.68376 20.2814C3.50047 19.7706 3.75803 19.2068 4.26413 19.011L11.9309 16.0445C12.2419 15.9241 12.4725 15.6567 12.5457 15.3314L14.3641 7.25261C14.4841 6.71939 15.01 6.38131 15.5449 6.49348L23.5495 8.172C23.8783 8.24094 24.2197 8.1402 24.4584 7.90382L30.309 2.10973Z" stroke="#1D1D1B" stroke-width="1.5" stroke-linecap="round" stroke-linejoin="round"/>
<path d="M21.8594 25.3358L35.6207 21.1931C39.7055 20.2491 41.105 25.3677 37.2594 26.6365C37.9741 26.4213 38.7458 26.5018 39.4048 26.8601C40.0638 27.2184 40.5561 27.8251 40.7734 28.547C40.9907 29.2688 40.9152 30.0466 40.5636 30.7092C40.2119 31.3717 39.6127 31.8648 38.8981 32.0799C39.4846 32.1114 40.0482 32.325 40.5115 32.6913C40.9747 33.0577 41.3151 33.559 41.4859 34.1264C41.6567 34.6938 41.6497 35.2997 41.4656 35.8609C41.2816 36.4222 40.9296 36.9113 40.4579 37.2613C42.8459 37.4155 43.2528 41.3249 41.1346 41.9626C33.2152 45.2038 25.6355 48.2158 21.8831 47.758" stroke="#1D1D1B" stroke-width="1.5" stroke-linecap="round" stroke-linejoin="round"/>
<path d="M5.46935 30.4373L8.01117 29.5046L11.873 28.342C13.8039 27.7607 15.951 27.1144 17.3005 31.5972L21.533 45.6569C21.8154 46.7313 21.6644 47.8724 21.113 48.8299C20.5616 49.7875 19.6548 50.4833 18.5917 50.7648L12.9142 52.474" stroke="#1D1D1B" stroke-width="1.5" stroke-linecap="round" stroke-linejoin="round"/>
</g>
<defs>
<clipPath id="clip0_1743:2204">
<rect width="62" height="62" fill="white" transform="translate(0.0136719 0.5)"/>
</clipPath>
</defs>
</svg>
