<svg width="30" height="29" viewBox="0 0 30 29" fill="none" xmlns="http://www.w3.org/2000/svg">
<rect x="0.192261" width="29.6428" height="28.1481" rx="4" fill="#FA6615"/>
<path d="M14.2558 9.02116H10.1923C9.08769 9.02116 8.19226 9.91659 8.19226 11.0212V19.1481C8.19226 20.2527 9.08769 21.1481 10.1923 21.1481H18.3192C19.4238 21.1481 20.3192 20.2527 20.3192 19.1481V15.0847" stroke="white" stroke-width="2" stroke-linecap="round"/>
<path d="M16.7822 6C16.2299 6 15.7822 6.44772 15.7822 7C15.7822 7.55228 16.2299 8 16.7822 8V6ZM21.8351 7H22.8351C22.8351 6.44772 22.3874 6 21.8351 6V7ZM20.8351 12.0529C20.8351 12.6052 21.2828 13.0529 21.8351 13.0529C22.3874 13.0529 22.8351 12.6052 22.8351 12.0529H20.8351ZM11.0051 16.9215C10.6242 17.3214 10.6397 17.9544 11.0396 18.3352C11.4395 18.7161 12.0725 18.7007 12.4534 18.3008L11.0051 16.9215ZM16.7822 8H21.8351V6H16.7822V8ZM22.8351 12.0529V7H20.8351V12.0529H22.8351ZM21.1109 6.31034L11.0051 16.9215L12.4534 18.3008L22.5592 7.68966L21.1109 6.31034Z" fill="white"/>
</svg>
