<svg width="43" height="42" viewBox="0 0 43 42" fill="none" xmlns="http://www.w3.org/2000/svg">
<path d="M0.0136719 4C0.0136719 1.79086 1.80453 0 4.01367 0H38.0137C40.2228 0 42.0137 1.79086 42.0137 4V38C42.0137 40.2091 40.2228 42 38.0137 42H4.01367C1.80453 42 0.0136719 40.2091 0.0136719 38V4Z" fill="#E4F2FF"/>
<path d="M12.0137 20.5C12.0102 21.8199 12.3186 23.1219 12.9137 24.3C13.6192 25.7118 14.7039 26.8992 16.0462 27.7293C17.3885 28.5594 18.9354 28.9994 20.5137 29C21.8335 29.0035 23.1356 28.6951 24.3137 28.1L30.0137 30L28.1137 24.3C28.7087 23.1219 29.0171 21.8199 29.0137 20.5C29.0131 18.9218 28.5731 17.3749 27.743 16.0326C26.9128 14.6903 25.7254 13.6056 24.3137 12.9C23.1356 12.305 21.8335 11.9966 20.5137 12H20.0137C17.9293 12.115 15.9606 12.9948 14.4845 14.4709C13.0084 15.947 12.1287 17.9157 12.0137 20V20.5Z" stroke="#2F81FF" stroke-width="2" stroke-linecap="round" stroke-linejoin="round"/>
</svg>
