<svg width="23" height="22" viewBox="0 0 23 22" fill="none" xmlns="http://www.w3.org/2000/svg">
<path d="M10.6292 2.32771C11.0044 1.61656 12.0229 1.61656 12.3981 2.32771L14.7529 6.79088C14.8976 7.06512 15.1613 7.25673 15.4669 7.3096L20.4393 8.16995C21.2316 8.30703 21.5463 9.27567 20.9859 9.85226L17.4688 13.471C17.2527 13.6934 17.152 14.0034 17.1961 14.3103L17.9145 19.3052C18.0289 20.1011 17.2049 20.6997 16.4834 20.3449L11.9549 18.1183C11.6767 17.9815 11.3507 17.9815 11.0724 18.1183L6.54398 20.3449C5.82243 20.6997 4.99846 20.1011 5.11291 19.3052L5.83123 14.3103C5.87536 14.0034 5.77463 13.6934 5.55852 13.471L2.04147 9.85227C1.48107 9.27567 1.7958 8.30703 2.58808 8.16995L7.56048 7.3096C7.86602 7.25673 8.12975 7.06512 8.27444 6.79088L10.6292 2.32771Z" stroke="white" stroke-width="2"/>
</svg>
