<svg width="43" height="42" viewBox="0 0 43 42" fill="none" xmlns="http://www.w3.org/2000/svg">
<path d="M0.0136719 4C0.0136719 1.79086 1.80453 0 4.01367 0H38.0137C40.2228 0 42.0137 1.79086 42.0137 4V38C42.0137 40.2091 40.2228 42 38.0137 42H4.01367C1.80453 42 0.0136719 40.2091 0.0136719 38V4Z" fill="#E4F2FF"/>
<path d="M19.4282 21.8344C20.2288 20.7933 21.7985 20.7933 22.5991 21.8344L27.172 27.781C28.1834 29.0963 27.2457 31.0002 25.5865 31.0002H16.4408C14.7816 31.0002 13.8439 29.0963 14.8554 27.781L19.4282 21.8344Z" stroke="#2F81FF" stroke-width="2"/>
<path d="M21.4099 18.1983C21.2098 18.4586 20.8174 18.4586 20.6172 18.1983L19.1775 16.3262C18.9247 15.9973 19.1591 15.5214 19.5739 15.5214L22.4533 15.5214C22.8681 15.5214 23.1025 15.9973 22.8496 16.3262L21.4099 18.1983Z" fill="#2F81FF"/>
<path d="M19.4282 20.1657C20.2288 21.2068 21.7985 21.2068 22.5991 20.1657L27.172 14.2191C28.1834 12.9038 27.2457 10.9999 25.5865 10.9999H16.4408C14.7816 10.9999 13.8439 12.9038 14.8554 14.2191L19.4282 20.1657Z" stroke="#2F81FF" stroke-width="2"/>
</svg>
